# xmcd CD database file
#
# Track frame offsets:
#	150
#	13823
#	30650
#	46613
#	63485
#	80714
#	99563
#	112705
#	133605
#	150038
#
# Disc length: 2212 seconds
#
# Revision: 0
# Processed by: cddbd v1.5.1PL2 Copyright (c) Steve Scherf et al.
# Submitted via: CDex 1.51
#
DISCID=6c08a20a
DTITLE=bloomfield hammond dr.john - triumvirate
DYEAR=1973
DGENRE=Blues
TTITLE0=Cha Dooky-Doo
TTITLE1=Last Night
TTITLE2=I Yi Yi
TTITLE3=Just to Be With You
TTITLE4=Baby Let Me Kiss You
TTITLE5=Sho 'Bout to Drive Me Wild
TTITLE6=It Hurts Me Too
TTITLE7=Rock Me Baby
TTITLE8=Ground Hog Blues
TTITLE9=Pretty Thing
EXTD=YEAR: 1973
EXTT0=
EXTT1=
EXTT2=
EXTT3=
EXTT4=
EXTT5=
EXTT6=
EXTT7=
EXTT8=
EXTT9=
PLAYORDER=
